<svg width="271" height="79" viewBox="0 0 271 79" fill="none" xmlns="http://www.w3.org/2000/svg">
<path fill-rule="evenodd" clip-rule="evenodd" d="M207.069 59.8659C206.863 60.1653 206.198 60.7409 205.854 61.0402L205.211 61.5698C203.651 62.7901 202.734 63.4349 200.968 64.494L198.628 65.7834C198.008 66.0367 197.618 66.29 196.999 66.5433C192.939 68.2472 190.324 69.1682 185.759 69.8129L181.332 70.1583L178.992 70.0201C175.849 69.6057 174.427 69.4675 171.193 68.1781C168.142 66.9347 164.724 64.8394 162.407 62.5138C161.994 62.0994 161.627 61.731 161.214 61.3165C159.425 59.5205 157.888 57.1489 156.741 54.8924C156.306 54.0175 156.696 54.1326 155.64 54.1326C155.64 54.524 155.824 55.0997 155.893 55.4911C156.558 58.4384 157.728 61.4316 159.242 63.9644C159.655 64.6552 160.068 65.3229 160.526 66.0137L161.994 67.9478C162.637 68.7767 164.518 70.826 165.298 71.4477C167.224 73.0825 167.913 73.6581 170.115 74.9706C174.198 77.4343 179.405 78.977 184.704 78.977C190.806 78.977 193.352 78.6776 199.018 77.1119C199.568 76.9507 200.165 76.7435 200.761 76.5363C202.298 76.0297 204.225 75.1778 205.601 74.487C205.854 74.3489 206.06 74.2337 206.289 74.0956C207.643 73.3127 208.423 72.9443 209.868 71.9773L211.886 70.5267C212.437 70.1583 213.4 69.2142 213.836 68.984L215.465 73.6351C215.763 74.3949 215.993 75.1778 216.291 75.9837C216.428 76.3981 216.566 76.7435 216.704 77.1349C216.818 77.5034 217.071 77.9639 217.094 78.3553H217.254C217.254 77.8718 221.016 59.06 221.704 55.6523C221.773 55.3069 221.934 54.3398 222.025 54.1326C221.681 54.1326 221.475 54.0405 221.016 54.0635H204.133C203.628 54.0635 199.752 53.9945 199.752 53.9945C199.477 54.0635 199.614 54.0866 199.729 54.2017L205.785 58.8298C206.037 59.014 206.198 59.1521 206.427 59.3363C206.656 59.4975 206.932 59.6587 207.069 59.8659Z" fill="#EA1D2C"/>
<path d="M29.3847 35.1137C29.3847 37.2781 28.9718 39.074 28.169 40.5016C27.3661 41.9292 26.265 43.0574 24.8658 43.9094C23.4665 44.7613 21.8378 45.36 19.9798 45.6823C18.0988 46.0047 16.126 46.1889 14.0615 46.1889C12.2264 46.1889 10.4831 46.0047 8.83147 45.6363C7.15693 45.2679 5.68884 44.6232 4.40427 43.7482C3.11969 42.8732 2.0645 41.722 1.28458 40.2714C0.458778 38.8438 0.0458778 37.0708 0 34.9295H8.30388C8.51033 36.6794 9.15262 37.8767 10.2307 38.4984C11.3089 39.1201 12.777 39.4424 14.6579 39.4424C16.6078 39.4424 18.0529 39.1661 18.9934 38.5905C19.9339 38.0379 20.3927 37.0708 20.3927 35.7354C20.3927 34.9525 20.1403 34.2617 19.6127 33.7091C19.0852 33.1565 18.1447 32.719 16.7683 32.4197L13.2128 31.6599C11.4236 31.2915 9.9096 30.7849 8.69384 30.1863C7.47808 29.5876 6.46877 28.8968 5.73472 28.114C4.97774 27.3311 4.45014 26.4561 4.10606 25.4891C3.76198 24.499 3.60141 23.4628 3.60141 22.3346C3.60141 20.4926 3.96843 18.9038 4.70247 17.5453C5.43652 16.1868 6.44583 15.0586 7.7304 14.1606C9.01498 13.2626 10.5748 12.5949 12.387 12.1574C14.1992 11.7429 16.149 11.5127 18.2823 11.5127C19.8651 11.5127 21.402 11.6739 22.9389 12.0192C24.4529 12.3646 25.8292 12.9172 27.022 13.6771C28.2378 14.4599 29.2471 15.473 30.0499 16.7855C30.8528 18.0749 31.3575 19.6867 31.518 21.5978L23.5353 22.6109C23.4435 21.9432 23.3059 21.3445 23.0765 20.7919C22.8471 20.2393 22.526 19.7788 22.1131 19.3413C21.7002 18.9268 21.1497 18.6045 20.4844 18.3742C19.8192 18.144 18.9934 18.0289 17.9841 18.0289C16.6995 18.0289 15.6673 18.144 14.9332 18.3742C14.1762 18.6045 13.6028 18.9038 13.2128 19.2492C12.8228 19.5946 12.5705 19.986 12.4558 20.4005C12.3411 20.8149 12.2952 21.1833 12.2952 21.5287C12.2952 22.4497 12.6164 23.1635 13.2587 23.647C13.901 24.1536 14.9791 24.5681 16.4701 24.8904L19.7733 25.5812C21.6543 25.9496 23.1912 26.4561 24.4299 27.0778C25.6457 27.6995 26.655 28.4133 27.389 29.2422C28.146 30.0481 28.6507 30.9461 28.9489 31.9362C29.2241 32.9493 29.3847 33.9854 29.3847 35.1137Z" fill="#EA1D2C"/>
<path d="M45.4649 16.6013C46.5889 15.1046 48.0111 13.8843 49.7085 12.9403C51.406 11.9962 53.3788 11.5357 55.6268 11.5357C57.5307 11.5357 59.2052 11.9041 60.6275 12.6409C62.0497 13.3777 63.2196 14.3678 64.16 15.6572C65.1005 16.9236 65.8116 18.4433 66.2704 20.1702C66.7521 21.8971 66.9815 23.7852 66.9815 25.8345C66.9356 28.8047 66.5227 31.5217 65.6969 34.0085C64.8941 36.4952 63.7701 38.6366 62.3249 40.4556C60.8798 42.2746 59.2052 43.6791 57.3013 44.7152C55.3974 45.7284 53.3329 46.2579 51.1308 46.2579C48.6304 46.2579 46.5659 45.8205 44.8914 44.9685C43.2168 44.1166 41.7946 42.712 40.5789 40.7319L37.0233 57.3792H28.3524L37.7803 12.5488H46.2677L45.4649 16.6013ZM42.8498 28.9199C42.7581 29.4725 42.6893 29.979 42.6204 30.4856C42.5516 30.9921 42.5287 31.4987 42.5287 31.9822C42.5287 32.8111 42.6204 33.617 42.781 34.3538C42.9416 35.1137 43.2168 35.8044 43.5839 36.4261C44.0885 37.255 44.7996 37.9228 45.7401 38.4063C46.6806 38.8898 47.8046 39.1201 49.1351 39.1201C50.5573 39.1201 51.796 38.7517 52.92 37.9918C54.0211 37.232 54.9386 36.2419 55.6727 34.9755C56.4067 33.7322 56.9572 32.2816 57.3243 30.6468C57.6913 29.012 57.8748 27.3311 57.8748 25.5812C57.8748 23.3707 57.3472 21.6669 56.3149 20.4465C55.2827 19.2262 53.9752 18.6275 52.3924 18.6275C50.1903 18.6275 48.2634 19.3874 46.5889 20.884C45.7631 21.5978 45.052 22.4497 44.5014 23.4859C43.9509 24.499 43.5609 25.5581 43.3545 26.6403L42.8498 28.9199Z" fill="#EA1D2C"/>
<path d="M115.887 34.1236C115.727 34.7913 115.635 35.413 115.635 36.0117C115.635 37.1399 115.933 37.8997 116.507 38.2681C117.08 38.6366 117.814 38.8208 118.686 38.8208C119.259 38.8208 119.902 38.7747 120.59 38.6596C121.278 38.5444 121.874 38.4293 122.379 38.3142L123.618 44.7613C122.379 45.1758 121.163 45.4521 119.993 45.6132C118.823 45.7514 117.654 45.8435 116.438 45.8435C113.364 45.8435 110.978 45.1527 109.304 43.7482C107.629 42.3436 106.781 40.2253 106.781 37.3932C106.781 36.1728 106.918 34.9755 107.216 33.7552L110.267 19.3413H105.152L106.597 12.5258H111.712L113.593 3.82222H122.333L120.429 12.5258H127.907L126.485 19.3413H119.007L115.887 34.1236Z" fill="#EA1D2C"/>
<path d="M124.053 45.1988L130.981 12.5258H139.721L132.793 45.1988H124.053ZM131.6 8.38123L133.275 0.483536H142.267L140.592 8.38123H131.6Z" fill="#EA1D2C"/>
<path d="M155.87 12.5258H163.348L161.926 19.3413H154.379L146.648 57.3331H137.909L145.639 19.3413H140.524L141.969 12.5258H147.084L147.497 10.5917C147.956 8.70358 148.506 7.11484 149.172 5.77936C149.837 4.44389 150.663 3.33868 151.672 2.48674C152.681 1.6348 153.828 1.01312 155.159 0.598659C156.489 0.207228 158.072 0 159.907 0C161.696 0 163.233 0.207228 164.564 0.598659C165.871 0.99009 166.743 1.28942 167.156 1.49665L164.793 7.57534C164.334 7.36811 163.784 7.18391 163.118 7.02273C162.453 6.86156 161.696 6.76945 160.87 6.76945C159.494 6.76945 158.439 7.11484 157.728 7.82862C156.994 8.54241 156.466 9.69367 156.145 11.2824L155.87 12.5258Z" fill="#EA1D2C"/>
<path d="M193.352 19.963C192.687 18.3052 191.746 16.8315 190.507 15.5882C189.292 14.3448 187.778 13.3547 186.011 12.6179C184.245 11.8811 182.249 11.5127 180.047 11.5127C177.295 11.5127 174.771 11.9962 172.432 12.9633C170.092 13.9303 168.073 15.2888 166.353 17.0618C164.632 18.8347 163.279 21.0222 162.338 23.601C161.375 26.1798 160.893 29.1041 160.893 32.3737C160.893 34.2848 161.214 36.0807 161.903 37.7616C162.568 39.4424 163.531 40.893 164.77 42.1364C166.009 43.3798 167.523 44.3699 169.289 45.1067C171.055 45.8435 173.051 46.2119 175.253 46.2119C178.029 46.2119 180.598 45.7514 182.961 44.8304C185.3 43.9094 187.319 42.5739 189.016 40.8009C190.691 39.028 192.021 36.8406 192.939 34.2617C193.879 31.6829 194.338 28.7126 194.338 25.3739C194.338 23.4398 194.017 21.6438 193.352 19.963Z" fill="#EA1D2C"/>
<path d="M229.274 19.963C228.609 18.3052 227.668 16.8315 226.43 15.5882C225.214 14.3448 223.7 13.3547 221.934 12.6179C220.167 11.8811 218.172 11.5127 215.97 11.5127C213.217 11.5127 210.694 11.9962 208.354 12.9633C206.014 13.9303 203.996 15.2888 202.275 17.0618C200.555 18.8347 199.201 21.0222 198.261 23.601C197.297 26.1798 196.816 29.1041 196.816 32.3737C196.816 34.2848 197.137 36.0807 197.825 37.7616C198.49 39.4424 199.454 40.893 200.692 42.1364C201.931 43.3798 203.445 44.3699 205.211 45.1067C206.978 45.8435 208.973 46.2119 211.175 46.2119C213.951 46.2119 216.52 45.7514 218.883 44.8304C221.223 43.9094 223.241 42.5739 224.939 40.8009C226.613 39.028 227.944 36.8406 228.861 34.2617C229.802 31.6829 230.261 28.7126 230.261 25.3739C230.283 23.4398 229.939 21.6438 229.274 19.963Z" fill="#EA1D2C"/>
<path d="M262.26 0.506561L258.705 17.1078C257.489 15.1046 256.067 13.6771 254.438 12.8251C252.787 11.9732 250.814 11.5357 248.474 11.5357C246.272 11.5357 244.184 12.0653 242.212 13.1014C240.239 14.1376 238.519 15.5882 237.073 17.4302C235.628 19.2722 234.458 21.4366 233.61 23.9694C232.761 26.5022 232.325 29.2422 232.325 32.2125C232.325 34.2617 232.577 36.1268 233.082 37.8537C233.587 39.5576 234.321 41.0542 235.33 42.2976C236.339 43.5409 237.555 44.531 239.046 45.1988C240.514 45.8895 242.235 46.2349 244.184 46.2349C246.18 46.2349 247.969 45.7974 249.575 44.9225C251.181 44.0475 252.603 42.8041 253.842 41.2384L253.039 45.2448H261.526L271 0.552612H262.26V0.506561Z" fill="#EA1D2C"/>
<path d="M86.2043 11.9041C76.8223 11.9041 69.2296 19.5255 69.2296 28.9429C69.2296 37.7846 75.9277 45.0606 84.5298 45.8895H87.8789C96.458 45.0376 103.179 37.7846 103.179 28.9429C103.179 19.5255 95.5634 11.9041 86.2043 11.9041ZM93.9806 36.4722C93.6824 36.9787 93.0172 37.1399 92.5355 36.8176C88.5441 34.3769 83.5434 33.8243 77.6252 35.1828C77.0517 35.3209 76.4782 34.9525 76.3635 34.3769C76.2259 33.8012 76.5929 33.2256 77.1664 33.1105C83.6352 31.6368 89.1864 32.2585 93.6595 34.9985C94.1182 35.3209 94.2788 35.9656 93.9806 36.4722ZM96.0681 31.821C95.6781 32.4427 94.8752 32.65 94.2559 32.2585C89.691 29.4494 82.7406 28.6205 77.3499 30.2784C76.6388 30.4856 75.9048 30.0941 75.6983 29.4034C75.4919 28.6896 75.8818 27.9528 76.57 27.7456C82.7406 25.8575 90.4021 26.7785 95.6322 30.002C96.2516 30.3935 96.4351 31.1994 96.0681 31.821ZM96.2286 27.0088C90.7462 23.7391 81.7312 23.4398 76.5012 25.0286C75.6524 25.2818 74.7808 24.7983 74.5284 23.9694C74.2761 23.1175 74.7578 22.2425 75.5836 21.9892C81.5707 20.1702 91.5491 20.5156 97.8343 24.2687C98.5913 24.7292 98.8437 25.6963 98.3849 26.4561C97.972 27.193 96.9856 27.4462 96.2286 27.0088Z" fill="#EA1D2C"/>
</svg>
