<svg width="568" height="568" viewBox="0 0 568 568" fill="none" xmlns="http://www.w3.org/2000/svg">
<g clip-path="url(#clip0)">
<path d="M366.964 80.2516C366.964 80.2516 295.559 49.6884 221.726 86.7277C148.051 123.713 107.378 203.64 72.6653 267.601C37.9523 331.563 52.0783 399.603 104.946 433.512C157.814 467.421 197.436 424.742 274.11 427.25C350.785 429.758 370.786 442.048 436.694 402.585C502.602 363.122 519.846 261.175 473.955 182.221C428.223 103.212 366.964 80.2516 366.964 80.2516Z" fill="#FC3850"/>
<path opacity="0.7" d="M366.964 80.2516C366.964 80.2516 295.559 49.6884 221.726 86.7277C148.051 123.713 107.378 203.64 72.6653 267.601C37.9523 331.563 52.0783 399.603 104.946 433.512C157.814 467.421 197.436 424.742 274.11 427.25C350.785 429.758 370.786 442.048 436.694 402.585C502.602 363.122 519.846 261.175 473.955 182.221C428.223 103.212 366.964 80.2516 366.964 80.2516Z" fill="#FC3850"/>
</g>
<path d="M222.879 115.556C222.879 112.963 226.39 110.185 226.021 107.778C225.651 105.185 221.585 103.519 220.846 101.111C220.107 98.7037 222.879 95 221.955 92.7778C221.031 90.3704 216.595 89.8148 215.302 87.5926C214.008 85.3704 215.671 81.2963 214.193 79.2593C212.714 77.2222 208.279 77.7778 206.431 75.9259C204.583 74.0741 205.137 69.6296 203.104 68.1481C201.072 66.6667 197.006 68.3333 194.788 67.037C192.57 65.7407 192.016 61.2963 189.613 60.3704C187.211 59.4444 183.7 62.037 181.297 61.4815C178.895 60.7407 177.046 56.6667 174.644 56.2963C172.241 55.9259 169.469 59.4444 166.882 59.4444C164.295 59.4444 161.523 55.9259 159.12 56.2963C156.533 56.6667 154.869 60.7407 152.467 61.4815C149.695 61.6667 145.999 59.0741 143.781 60C141.378 60.9259 140.824 65.3704 138.606 66.6667C136.389 67.963 132.323 66.2963 130.29 67.7778C128.257 69.2593 128.811 73.7037 126.963 75.5556C125.115 77.4074 120.68 76.8518 119.201 78.8889C117.723 80.9259 119.386 85 118.093 87.2222C116.799 89.4444 112.364 90 111.439 92.4074C110.515 94.8148 113.103 98.3333 112.548 100.741C111.809 103.148 107.743 105 107.374 107.407C107.004 109.815 110.515 112.593 110.515 115.185C110.515 117.778 107.004 120.556 107.374 122.963C107.743 125.556 111.809 127.222 112.548 129.63C113.288 132.037 110.515 135.741 111.439 137.963C112.364 140.37 116.799 140.926 118.093 143.148C119.386 145.37 117.723 149.444 119.201 151.481C120.68 153.519 125.115 152.963 126.963 154.815C128.811 156.667 128.257 161.111 130.29 162.593C132.323 164.074 136.389 162.407 138.606 163.704C140.824 165 141.378 169.444 143.781 170.37C146.183 171.296 149.695 168.704 152.097 169.259C154.5 170 156.348 174.074 158.75 174.444C161.153 174.815 163.925 171.296 166.512 171.296C169.1 171.296 171.872 174.815 174.274 174.444C176.862 174.074 178.525 170 180.927 169.259C183.33 168.519 187.026 171.296 189.244 170.37C191.646 169.444 192.201 165 194.418 163.704C196.636 162.407 200.702 164.074 202.735 162.593C204.768 161.111 204.213 156.667 206.061 154.815C207.909 152.963 212.345 153.519 213.823 151.481C215.302 149.444 213.639 145.37 214.932 143.148C216.226 140.926 220.661 140.37 221.585 137.963C222.509 135.556 219.922 132.037 220.476 129.63C221.216 127.222 225.281 125.37 225.651 122.963C226.39 120.741 222.879 117.963 222.879 115.556Z" fill="#263238" stroke="#263238" stroke-miterlimit="10" stroke-linecap="round" stroke-linejoin="round"/>
<path d="M135.834 133.519C135.095 133.519 134.541 133.148 134.171 132.407C132.877 129.259 131.768 125.926 131.214 122.593C127.518 101.667 140.085 82.037 159.305 78.7037C178.525 75.3704 197.006 89.6296 200.517 110.556C200.702 111.852 200.887 112.963 201.072 114.259C201.072 115.37 200.332 116.111 199.408 116.296C198.299 116.296 197.56 115.556 197.375 114.63C197.375 113.519 197.191 112.407 197.006 111.296C193.679 92.4074 177.231 79.4444 160.044 82.4074C142.857 85.3704 131.584 103.148 134.725 122.037C135.28 125.185 136.204 128.148 137.497 130.926C137.867 131.852 137.497 132.963 136.573 133.333C136.204 133.519 136.019 133.519 135.834 133.519Z" fill="white" stroke="#263238" stroke-miterlimit="10"/>
<path d="M259.656 400.185C259.656 400.185 334.688 381.667 358.159 359.444C358.159 359.444 351.321 394.63 363.703 413.148C376.085 431.667 425.244 480.741 433.745 490.556C442.431 500.37 458.51 523.704 463.5 522.963C468.489 522.407 481.98 500.185 486.231 493.889C490.482 487.778 498.059 483.889 499.352 473.333C500.646 462.778 494.363 462.222 491.96 465.37C489.558 468.519 476.806 478.148 468.674 480.556C460.727 482.963 452.041 485.926 452.041 485.926C452.041 485.926 432.637 459.444 417.852 428.519C403.067 397.593 387.728 339.63 382.738 327.963C377.748 316.296 370.356 312.593 361.116 312.593C351.875 312.593 322.306 312.593 270.56 335.37C218.813 358.148 220.661 380.37 225.651 388.519C230.641 396.481 243.023 403.333 259.656 400.185Z" fill="#263238" stroke="#263238" stroke-miterlimit="10" stroke-linecap="round" stroke-linejoin="round"/>
<path d="M499.352 473.518C500.646 462.963 494.363 462.407 491.96 465.556C489.557 468.704 476.806 478.333 468.674 480.741C460.727 483.148 452.041 486.111 452.041 486.111C452.041 486.111 436.887 465.37 423.211 439.444C416.558 449.63 408.242 455 402.328 457.593C416.373 472.593 429.68 486.111 433.93 490.741C442.616 500.556 458.694 523.889 463.684 523.148C468.674 522.593 482.165 500.37 486.416 494.074C490.666 487.778 498.059 483.889 499.352 473.518Z" fill="#D9D9D9" stroke="#263238" stroke-miterlimit="10" stroke-linecap="round" stroke-linejoin="round"/>
<path d="M165.404 164.074C165.404 164.074 173.535 180.741 174.459 186.296C175.383 191.667 169.1 194.815 162.816 196.296C156.533 197.593 146.553 194.074 136.573 205.37C126.594 216.667 102.199 265.926 98.6877 273.704C94.9915 281.481 98.6877 287.778 108.667 285.926C118.647 284.074 145.259 248.889 145.259 248.889C145.259 248.889 178.155 289.074 182.221 297.778C186.287 306.296 184.993 320.926 184.069 335.741C183.145 350.741 180.927 372.407 194.418 390C207.909 407.593 236.37 412.593 259.841 400.37C283.311 388.148 308.63 346.111 297.357 328.889C286.083 311.667 260.765 303.148 253.003 286.852C245.241 270.556 248.013 261.667 248.013 244.815C248.013 227.963 244.317 206.481 244.317 206.481C244.317 206.481 283.127 197.222 328.035 191.111C343.744 188.889 333.949 171.296 324.893 167.593C313.62 163.148 263.537 168.333 249.861 167.037C230.086 165.185 220.107 169.259 215.487 172.407C211.051 175.556 205.137 180 200.148 179.63C195.158 179.259 189.798 154.815 189.798 154.815C189.798 154.815 176.677 165.556 165.404 164.074Z" fill="#EA1D2C" stroke="#263238" stroke-miterlimit="10" stroke-linecap="round" stroke-linejoin="round"/>
<path d="M270.929 166.667C269.636 166.667 268.342 166.852 267.233 166.852C267.048 174.63 267.972 187.593 275.365 199.815C276.658 199.63 277.952 199.259 279.246 199.074C271.668 187.222 270.744 174.259 270.929 166.667Z" fill="#263238"/>
<path d="M250.046 279.63C249.676 278.333 249.307 277.222 248.937 276.111C221.031 282.407 197.375 300.556 184.624 311.852C184.624 313.519 184.624 315.185 184.624 316.852C196.451 305.926 220.846 285.926 250.046 279.63Z" fill="#263238"/>
<path d="M178.71 291.852C179.449 292.963 180.188 294.074 180.743 295C189.059 286.852 210.312 269.074 247.458 258.333C247.458 257.037 247.458 255.741 247.643 254.444C209.388 265.185 187.765 282.963 178.71 291.852Z" fill="#263238"/>
<path d="M151.173 230.185C157.826 229.444 189.429 224.63 235.446 195C238.957 202.037 242.469 207.037 242.653 207.407C243.023 207.963 243.577 208.148 244.132 208.148C244.317 208.148 244.317 208.148 244.502 208.148C244.317 207.037 244.132 206.296 244.132 206.296C244.132 206.296 244.686 206.111 245.98 205.926C245.98 205.741 245.795 205.556 245.795 205.37C245.61 205.185 231.565 184.444 230.271 167.222C228.978 167.407 227.684 167.593 226.575 167.963C226.945 171.296 227.684 174.815 228.608 178.148C193.864 203.519 159.49 208.704 150.249 209.63C149.325 204.815 148.032 200.926 147.107 198.148C145.999 198.519 144.89 199.074 143.596 199.63C144.52 202.037 145.629 205.556 146.368 209.63C144.151 207.037 141.563 204.815 138.791 203.148C138.052 203.889 137.313 204.63 136.573 205.37C136.389 205.556 136.204 205.741 136.204 205.926C141.378 209.074 146.368 213.519 147.662 220.37C147.847 223.704 147.662 227.407 147.292 231.296C144.705 226.296 139.53 219.259 129.366 215.741C128.811 216.852 128.072 217.778 127.518 218.889C143.042 223.889 145.814 237.222 145.999 238.148C145.999 238.333 146.183 238.518 146.183 238.518C145.814 240.556 145.259 242.593 144.52 244.63C141.194 240 133.616 231.667 121.604 229.074C121.05 230.185 120.31 231.296 119.756 232.407C134.171 234.815 141.378 246.111 143.042 249.074C142.487 250.556 141.933 252.037 141.563 253.518C143.781 250.741 145.075 248.889 145.075 248.889C145.075 248.889 145.629 249.444 146.368 250.556C146.553 250.185 146.553 249.815 146.738 249.444C149.325 242.593 150.619 236.111 151.173 230.185ZM229.717 181.667C230.826 185.185 232.304 188.519 233.783 191.481C189.983 219.815 158.935 225.37 151.358 226.481C151.358 224.815 151.358 222.963 151.358 221.296C151.358 221.111 151.358 220.741 151.358 220.556C151.358 220.37 151.358 220.37 151.358 220.185C151.173 217.593 150.988 215.37 150.804 213.148C160.783 212.037 194.973 206.667 229.717 181.667Z" fill="#263238"/>
<path d="M259.656 295.741C258.732 294.815 257.808 293.704 256.884 292.778C224.727 302.037 199.408 320.185 184.069 333.704C184.069 334.259 184.069 334.815 183.884 335.556C183.884 336.667 183.7 337.778 183.7 339.074C198.484 325.37 225.281 305.185 259.656 295.741Z" fill="#263238"/>
<path d="M247.828 240.741C247.828 239.444 247.828 238.333 247.643 237.037C200.148 239.63 176.862 263.889 167.621 277.037C168.36 278.148 169.284 279.074 170.024 280.185C178.155 267.963 200.517 243.333 247.828 240.741Z" fill="#263238"/>
<path d="M295.693 165.741C294.4 165.741 293.106 165.741 291.812 165.926C290.704 173.704 290.704 184.63 295.139 196.111C296.433 195.926 297.542 195.741 298.835 195.37C294.4 184.074 294.585 173.333 295.693 165.741Z" fill="#263238"/>
<path d="M244.871 166.481C246.165 175.926 249.491 190.185 256.699 203.519C257.808 203.333 259.101 202.963 260.58 202.778C253.372 190.185 250.231 176.111 248.752 166.852C247.458 166.667 246.165 166.481 244.871 166.481Z" fill="#263238"/>
<path d="M246.165 220.556C245.98 219.259 245.795 217.963 245.61 216.852C191.831 223.333 165.034 246.111 153.576 259.259C154.315 260.185 155.239 261.296 155.978 262.222C166.882 250 193.31 227.037 246.165 220.556Z" fill="#263238"/>
<path d="M259.656 400.185C279.061 390 299.759 359.444 299.944 339.444C299.759 335.741 298.835 332.222 297.172 329.444C295.693 327.037 294.03 324.63 292.182 322.222C286.083 315.741 277.952 310.37 270.744 305C229.902 320.37 197.375 351.296 183.884 363.333C184.993 372.222 187.95 381.296 194.234 389.63C207.725 407.407 236.185 412.222 259.656 400.185Z" fill="#263238" stroke="#263238" stroke-miterlimit="10" stroke-linecap="round" stroke-linejoin="round"/>
<path d="M138.052 126.667C137.313 126.667 136.389 126.852 135.649 127.037C129.551 129.259 127.148 138.148 130.29 147.222C133.432 156.111 141.009 161.667 147.108 159.444C148.401 159.074 149.51 158.148 150.434 157.222L138.052 126.667Z" fill="white" stroke="#263238" stroke-miterlimit="10" stroke-linecap="round" stroke-linejoin="round"/>
<path d="M138.052 126.667C137.313 126.667 136.389 126.852 135.649 127.037C134.91 127.222 134.356 127.593 133.617 127.963L146.553 159.444C146.738 159.444 146.738 159.444 146.923 159.259C148.216 158.889 149.325 157.963 150.249 157.037L138.052 126.667Z" fill="white" stroke="#263238" stroke-miterlimit="10" stroke-linecap="round" stroke-linejoin="round"/>
<path d="M193.864 108.148C194.418 107.593 195.158 107.222 195.897 107.037C201.996 104.815 209.573 110.37 212.714 119.259C215.856 128.148 213.454 137.222 207.355 139.444C206.061 139.815 204.768 140 203.289 139.815L193.864 108.148Z" fill="white" stroke="#263238" stroke-miterlimit="10" stroke-linecap="round" stroke-linejoin="round"/>
<path d="M193.864 108.148C194.418 107.593 195.158 107.222 195.897 107.037C196.636 106.852 197.375 106.667 198.115 106.667L207.725 139.259C207.54 139.259 207.54 139.444 207.355 139.444C206.061 139.815 204.768 140 203.289 139.815L193.864 108.148Z" stroke="#263238" stroke-miterlimit="10" stroke-linecap="round" stroke-linejoin="round"/>
<path d="M209.758 176.111C206.616 178.148 203.104 179.63 200.147 179.444C195.158 179.074 189.798 154.63 189.798 154.63C189.798 154.63 176.677 165.556 165.404 164.074C165.404 164.074 173.535 180.741 174.459 186.296C175.198 190.741 171.133 193.519 166.328 195.185C168.73 202.037 176.307 217.963 196.267 213.148C213.638 208.889 212.16 188.519 209.758 176.111Z" fill="#D9D9D9" stroke="#263238" stroke-miterlimit="10" stroke-linecap="round" stroke-linejoin="round"/>
<path d="M193.679 168.704C192.57 165.556 191.646 162.222 190.907 159.63C190.353 158.148 189.798 156.481 189.244 155C187.026 156.667 175.383 165.37 165.219 164.259C165.219 164.259 167.991 170 170.393 175.741C174.829 177.037 180.927 177.963 185.732 175.556C188.874 173.704 191.646 171.296 193.679 168.704Z" fill="#263238" stroke="#263238" stroke-miterlimit="10" stroke-linecap="round" stroke-linejoin="round"/>
<path d="M139.161 120.741C139.161 120.741 145.444 147.778 150.064 155.185C154.5 162.407 170.763 170.926 178.525 171.852C186.287 172.778 191.646 163.333 196.082 155.556C200.517 147.963 201.996 141.481 200.148 131.667C198.299 121.667 192.57 105.926 187.95 97.2222C184.993 91.6667 171.317 85.9259 158.566 89.0741C145.999 92.2222 136.943 106.296 139.161 120.741Z" fill="#D9D9D9" stroke="#263238" stroke-miterlimit="10" stroke-linecap="round" stroke-linejoin="round"/>
<path d="M167.621 136.111C167.621 136.111 168.545 130.741 175.753 132.963" stroke="#263238" stroke-miterlimit="10" stroke-linecap="round" stroke-linejoin="round"/>
<path d="M163.186 145.185C163.186 145.185 175.753 152.407 184.808 137.593" stroke="#263238" stroke-miterlimit="10" stroke-linecap="round" stroke-linejoin="round"/>
<path d="M151.358 133.889C151.358 133.889 156.348 136.667 162.631 129.815" stroke="#263238" stroke-width="2" stroke-miterlimit="10" stroke-linecap="round" stroke-linejoin="round"/>
<path d="M176.677 124.259C176.677 124.259 186.102 127.407 188.874 120.185" stroke="#263238" stroke-width="2" stroke-miterlimit="10" stroke-linecap="round" stroke-linejoin="round"/>
<path d="M148.216 125.185C148.216 125.185 147.292 113.519 159.12 115" stroke="#263238" stroke-miterlimit="10" stroke-linecap="round" stroke-linejoin="round"/>
<path d="M171.687 110.741C171.687 110.741 177.046 104.815 185.178 109.815" stroke="#263238" stroke-miterlimit="10" stroke-linecap="round" stroke-linejoin="round"/>
<path d="M123.452 133.333C123.452 133.333 122.158 147.407 123.452 150.926C124.746 154.63 136.943 168.148 139.161 171.296C141.378 174.444 141.933 175 137.313 183.519C132.877 192.037 95.3611 247.778 94.0675 261.667C92.7738 275.741 93.6979 288.333 108.483 285.556C123.452 282.778 131.953 245.37 138.237 224.074C144.52 202.778 151.358 175.185 151.358 169.444C151.358 163.519 132.323 148.889 130.29 147.222C128.257 145.556 127.333 137.778 127.333 133.704C127.518 129.815 125.3 129.815 123.452 133.333Z" fill="#D9D9D9" stroke="#263238" stroke-miterlimit="10" stroke-linecap="round" stroke-linejoin="round"/>
<path d="M138.237 224.259C138.791 222.222 139.53 220 140.085 217.778L120.865 210.185C108.852 229.444 94.8067 253.333 94.0675 261.667C92.7738 275.741 93.6979 288.333 108.483 285.556C123.452 282.963 131.953 245.556 138.237 224.259Z" fill="#EA1D2C" stroke="#263238" stroke-miterlimit="10" stroke-linecap="round" stroke-linejoin="round"/>
<path d="M112.364 224.444C112.364 224.63 112.179 224.63 112.179 224.815C111.994 225.185 111.809 225.37 111.624 225.741C111.255 226.481 110.885 227.037 110.331 227.778C115.32 228.889 123.822 231.296 135.095 235.741C135.465 234.444 135.834 233.333 136.019 232.222C125.485 227.963 117.538 225.556 112.364 224.444Z" fill="#263238"/>
<path d="M118.832 277.593C119.571 276.481 120.495 275.185 121.234 273.889C108.852 274.074 99.7965 271.852 93.6978 269.63C93.6978 271.111 93.6978 272.407 93.8827 273.704C99.7965 275.741 107.928 277.593 118.832 277.593Z" fill="#263238"/>
<path d="M100.721 245.185C100.536 245.556 100.351 245.741 100.166 246.111C99.9813 246.481 99.7965 246.852 99.6117 247.222C99.4269 247.778 99.0573 248.333 98.8725 248.889C106.08 249.63 117.169 251.667 128.442 257.037C128.811 255.926 129.181 254.63 129.735 253.519C118.832 248.148 108.113 245.926 100.721 245.185Z" fill="#263238"/>
<path d="M207.355 101.481C207.355 101.481 218.813 109.63 220.661 112.963C222.509 116.296 224.912 134.444 225.836 138.148C226.76 141.852 226.76 142.593 236.185 144.815C245.61 147.037 312.141 154.815 323.6 162.963C335.058 171.111 344.113 180 332.286 189.63C320.458 199.259 286.453 181.296 266.309 172.222C246.165 163.148 220.846 150.37 216.411 146.481C211.975 142.593 213.269 118.704 213.269 116.111C213.269 113.519 208.094 107.778 204.953 105.185C201.811 102.222 203.289 100.556 207.355 101.481Z" fill="#D9D9D9" stroke="#263238" stroke-miterlimit="10" stroke-linecap="round" stroke-linejoin="round"/>
<path d="M266.309 172.037C264.276 171.111 262.243 170.185 260.21 169.259L267.048 149.63C289.41 153.148 316.577 157.963 323.6 162.778C335.058 170.926 344.113 179.815 332.286 189.444C320.458 199.074 286.638 181.111 266.309 172.037Z" fill="#EA1D2C" stroke="#263238" stroke-miterlimit="10" stroke-linecap="round" stroke-linejoin="round"/>
<path d="M297.172 185.741C298.281 186.111 299.39 186.667 300.683 187.037L311.957 158.333C311.217 158.148 310.293 157.963 309.554 157.778C309.369 157.778 309.184 157.778 309 157.593C308.815 157.593 308.63 157.407 308.26 157.407L297.172 185.741Z" fill="#263238"/>
<path d="M290.334 153.704C289.964 153.704 289.78 153.519 289.41 153.519C288.486 153.333 287.747 153.148 286.823 152.963L277.028 177.037C277.952 177.407 278.691 177.778 279.615 178.333C279.8 178.519 280.17 178.519 280.354 178.704L290.519 153.889C290.334 153.704 290.334 153.704 290.334 153.704Z" fill="#263238"/>
<path d="M329.329 167.222C326.926 172.963 322.306 183.148 318.055 191.852C319.349 192.037 320.827 192.222 321.936 192.222C325.817 184.259 329.698 175.556 332.286 170C331.362 169.074 330.437 168.148 329.329 167.222Z" fill="#263238"/>
<path d="M453.335 492.222C457.031 494.074 460.173 497.778 460.173 497.778C460.173 497.778 458.51 502.222 448.53 510C455.183 516.667 461.097 523.333 463.5 523.148C468.489 522.593 481.98 500.37 486.231 494.074C490.482 487.963 498.059 484.074 499.352 473.518C500.646 462.963 494.363 462.407 491.96 465.555C489.558 468.704 474.403 478.704 466.456 481.296C458.51 483.704 452.226 486.111 452.226 486.111C452.226 486.111 449.639 490.37 453.335 492.222Z" fill="white" stroke="#263238" stroke-miterlimit="10" stroke-linecap="round" stroke-linejoin="round"/>
<path d="M497.689 464.815C496.026 477.593 492.145 481.667 477.36 497.593C465.902 510 461.467 517.778 459.619 521.481C461.282 522.593 462.575 523.148 463.315 522.963C468.305 522.407 481.796 500.185 486.046 493.889C490.297 487.778 497.874 483.889 499.168 473.333C499.907 468.889 498.983 466.296 497.689 464.815Z" fill="white" stroke="#263238" stroke-miterlimit="10" stroke-linecap="round" stroke-linejoin="round"/>
<path d="M219.737 353.889C219.737 353.889 221.77 352.407 225.097 350" stroke="white" stroke-miterlimit="10" stroke-linecap="round" stroke-linejoin="round"/>
<path d="M212.714 358.148C212.714 358.148 273.701 311.296 321.197 293.889C368.693 276.667 384.586 288.333 381.629 305C378.488 321.667 357.05 375.37 340.417 405C323.784 434.63 295.509 483.333 295.509 483.333C295.509 483.333 322.675 520.926 325.078 525.37C327.481 529.63 309.739 530.37 302.347 525.926C296.433 522.407 296.618 523.148 283.866 514.815C262.243 500.556 261.134 495 264.091 490.185C273.886 474.444 285.899 461.111 290.519 442.037C299.205 407.407 315.283 362.407 316.946 367.407C316.946 367.407 295.324 389.63 262.798 400.741C230.086 411.852 208.834 409.074 194.418 389.63" fill="#263238"/>
<path d="M212.714 358.148C212.714 358.148 273.701 311.296 321.197 293.889C368.693 276.667 384.586 288.333 381.629 305C378.488 321.667 357.05 375.37 340.417 405C323.784 434.63 295.509 483.333 295.509 483.333C295.509 483.333 322.675 520.926 325.078 525.37C327.481 529.63 309.739 530.37 302.347 525.926C296.433 522.407 296.618 523.148 283.866 514.815C262.243 500.556 261.134 495 264.091 490.185C273.886 474.444 285.899 461.111 290.519 442.037C299.205 407.407 315.283 362.407 316.946 367.407C316.946 367.407 295.324 389.63 262.798 400.741C230.086 411.852 208.834 409.074 194.418 389.63" stroke="#263238" stroke-miterlimit="10" stroke-linecap="round" stroke-linejoin="round"/>
<path d="M233.043 344.444C245.056 336.111 262.613 324.259 275.365 317.593" stroke="white" stroke-miterlimit="10" stroke-linecap="round" stroke-linejoin="round"/>
<path d="M294.954 383.518L311.033 370C311.033 370 321.197 331.852 345.592 312.407" stroke="white" stroke-miterlimit="10" stroke-linecap="round" stroke-linejoin="round"/>
<path d="M360.746 362.407L357.419 370.926" stroke="white" stroke-miterlimit="10" stroke-linecap="round" stroke-linejoin="round"/>
<path d="M375.9 324.259L363.703 355" stroke="white" stroke-miterlimit="10" stroke-linecap="round" stroke-linejoin="round"/>
<path d="M302.162 526.111C309.554 530.37 327.481 529.815 324.893 525.556C322.491 521.296 295.324 483.519 295.324 483.519C295.324 483.519 302.901 470.556 312.326 454.074C300.498 452.593 293.661 447.407 290.149 443.148C285.159 461.667 273.516 474.815 263.906 490.37C260.765 495.37 262.058 500.926 283.681 515C296.433 523.333 296.248 522.593 302.162 526.111Z" fill="#D9D9D9" stroke="#263238" stroke-miterlimit="10" stroke-linecap="round" stroke-linejoin="round"/>
<path d="M295.324 483.518C295.324 483.518 292.921 481.667 289.78 486.667C286.638 491.667 284.79 496.481 284.79 496.481L270.559 480.185C268.342 483.519 266.124 486.852 263.906 490.37C260.765 495.37 262.058 500.926 283.681 515C296.433 523.333 296.248 522.593 302.162 526.111C309.554 530.37 327.481 529.815 324.893 525.556C322.491 521.111 295.324 483.518 295.324 483.518Z" fill="white" stroke="#263238" stroke-miterlimit="10" stroke-linecap="round" stroke-linejoin="round"/>
<path d="M283.681 515C296.433 523.333 296.248 522.593 302.162 526.111C308.815 530 323.969 529.815 325.078 526.667C296.987 525.185 273.701 502.778 263.537 491.111C260.949 495.926 263.167 501.481 283.681 515Z" fill="white" stroke="#263238" stroke-miterlimit="10" stroke-linecap="round" stroke-linejoin="round"/>
<defs>
<clipPath id="clip0">
<rect width="405.653" height="433.404" fill="white" transform="translate(203.405) rotate(26.0608)"/>
</clipPath>
</defs>
</svg>
